# xmcd
#
# Track frame offsets: 
#        150
#        22940
#        37400
#        49640
#        65720
#        76197
#        95240
#        113795
#        127897
#        151597
#        166872
#
# Disc length: 2387 seconds
#
# Revision: 3
# Processed by: cddbd v1.5.2PL0 Copyright (c) Steve Scherf et al.
# Submitted via: ExactAudioCopy v1.3
#
DISCID=8409510b
DTITLE=Micael Card - The Beginning
DYEAR=1989
DGENRE=Christian
TTITLE0=The Beginning (Genesis)
TTITLE1=In The Wilderness (Exodus)
TTITLE2=Jubilee (Leviticus)
TTITLE3=Lift Up The Suffering Symbol (Numbers)
TTITLE4=The Word Is So Near (Deutoronomy)
TTITLE5=Meditation #3 Shema
TTITLE6=God Will Provida A Lamb (Abraham)
TTITLE7=They Called Him Laughter (Isaac)
TTITLE8=Asleep On Holy Ground (Israel)
TTITLE9=A Face That Shone (Moses)
TTITLE10=Barocha
EXTD=
EXTT0=
EXTT1=
EXTT2=
EXTT3=
EXTT4=
EXTT5=
EXTT6=
EXTT7=
EXTT8=
EXTT9=
EXTT10=
PLAYORDER=
